<svg xmlns="http://www.w3.org/2000/svg" width="743" height="200" viewBox="0 0 743 200">
  <defs>
    <linearGradient id="indigo_renderer_desktop-a" x1="0%" y1="0%" y2="100%">
      <stop offset="0%" stop-color="#514EFF"/>
      <stop offset="100%" stop-color="#301EEC"/>
    </linearGradient>
  </defs>
  <g fill="none" fill-rule="evenodd">
    <path fill="#4A4A4A" d="M254.544,69.6 C254.544,68.88 254.184,68.52 253.536,68.52 L246.912,68.52 C246.264,68.52 245.904,68.88 245.904,69.6 L245.904,118.92 C245.904,119.64 246.264,120 246.912,120 L253.536,120 C254.184,120 254.544,119.64 254.544,118.92 L254.544,69.6 Z M272.424,120 C273.144,120 273.504,119.64 273.504,118.92 L273.504,90.12 C275.16,89.616 277.752,89.328 280.272,89.328 C285.528,89.328 288.624,91.416 288.624,98.112 L288.624,118.92 C288.624,119.64 288.984,120 289.704,120 L295.968,120 C296.616,120 296.976,119.64 296.976,118.92 L296.976,97.968 C296.976,86.448 290.208,81.84 280.272,81.84 C275.088,81.84 270.192,82.848 265.944,84.648 C265.44,84.936 265.152,85.368 265.152,85.944 L265.152,118.92 C265.152,119.64 265.512,120 266.232,120 L272.424,120 Z M328.104,83.424 L328.104,69.6 C328.104,68.88 328.464,68.52 329.184,68.52 L335.376,68.52 C336.096,68.52 336.456,68.88 336.456,69.6 L336.456,117.048 C336.456,117.696 336.168,118.056 335.664,118.272 C331.344,119.928 325.8,120.864 321.12,120.864 C311.616,120.864 304.632,115.968 304.632,105.024 L304.632,97.104 C304.632,87.744 311.328,81.84 320.328,81.84 C323.208,81.84 325.872,82.488 328.104,83.424 Z M313.056,97.104 L313.056,105.096 C313.056,111.36 316.152,113.52 321.336,113.52 C323.856,113.52 326.376,113.16 328.104,112.512 L328.104,91.128 C326.376,89.976 324,89.256 321.192,89.256 C316.008,89.256 313.056,91.632 313.056,97.104 Z M353.04,120 C353.688,120 354.048,119.64 354.048,118.92 L354.048,83.712 C354.048,83.064 353.688,82.704 353.04,82.704 L346.776,82.704 C346.056,82.704 345.696,83.064 345.696,83.712 L345.696,118.92 C345.696,119.64 346.056,120 346.776,120 L353.04,120 Z M354.624,72.912 C354.624,70.104 352.752,68.232 349.944,68.232 C347.28,68.232 345.192,70.104 345.192,72.912 C345.192,75.576 347.28,77.664 349.944,77.664 C352.752,77.664 354.624,75.576 354.624,72.912 Z M393.888,85.872 L393.888,117.624 C393.888,128.28 389.208,134.4 377.904,134.4 C371.928,134.4 367.68,132.888 363.864,129.936 C363.36,129.576 363.288,129.144 363.648,128.496 L366.672,124.032 C367.032,123.384 367.536,123.312 368.112,123.744 C370.776,125.688 374.088,126.984 377.832,126.984 C383.304,126.984 385.824,124.608 385.608,117.336 C383.304,118.416 380.208,118.92 377.616,118.92 C369.12,118.92 362.064,114.168 362.064,104.016 L362.064,97.248 C362.064,86.016 369.48,81.84 378.696,81.84 C384.096,81.84 389.136,82.992 393.096,84.648 C393.6,84.864 393.888,85.224 393.888,85.872 Z M370.488,97.248 L370.488,104.016 C370.488,109.704 374.016,111.576 378.408,111.576 C381.216,111.576 384.168,110.928 385.536,109.776 L385.536,90.12 C384.024,89.616 381.072,89.328 378.84,89.328 C373.872,89.328 370.488,91.056 370.488,97.248 Z M434.736,96.672 L434.736,106.32 C434.736,115.248 428.328,120.864 418.32,120.864 C408.312,120.864 401.904,115.248 401.904,106.32 L401.904,96.672 C401.904,87.672 408.312,81.84 418.32,81.84 C428.328,81.84 434.736,87.672 434.736,96.672 Z M410.328,96.672 L410.328,106.32 C410.328,110.928 413.136,113.376 418.32,113.376 C423.504,113.376 426.312,110.928 426.312,106.32 L426.312,96.672 C426.312,91.848 423.504,89.328 418.32,89.328 C413.136,89.328 410.328,91.848 410.328,96.672 Z M496.632,120 L493.176,120 C492.816,120 492.528,119.856 492.384,119.64 L476.76,98.904 L465.96,98.904 L465.96,119.424 C465.96,119.784 465.744,120 465.384,120 L462.576,120 C462.216,120 462,119.784 462,119.424 L462,69.096 C462,68.736 462.216,68.52 462.576,68.52 L478.56,68.52 C489.504,68.52 496.128,74.136 496.128,83.712 C496.128,92.352 490.584,97.752 481.296,98.616 L497.064,119.28 C497.28,119.64 497.136,120 496.632,120 Z M478.632,72.192 L465.96,72.192 L465.96,95.232 L478.632,95.232 C487.344,95.232 492.096,91.272 492.096,83.784 C492.096,76.224 487.344,72.192 478.632,72.192 Z M533.736,96.096 L533.736,102.864 C533.736,103.224 533.52,103.44 533.088,103.44 L508.248,103.44 L508.248,107.472 C508.248,113.808 513.144,117.336 519.12,117.336 C524.592,117.336 528.192,115.032 530.856,112.728 C531.216,112.512 531.504,112.512 531.72,112.872 L533.016,114.528 C533.304,114.816 533.304,115.104 532.944,115.392 C529.56,118.272 525.168,120.792 519.048,120.792 C511.416,120.792 504.36,116.112 504.36,107.472 L504.36,96.096 C504.36,86.88 510.84,82.128 519.12,82.128 C527.184,82.128 533.736,86.88 533.736,96.096 Z M529.992,100.2 L529.992,96.096 C529.992,89.184 525.456,85.656 519.12,85.656 C512.496,85.656 508.248,89.184 508.248,96.096 L508.248,100.2 L529.992,100.2 Z M545.928,120 C546.288,120 546.504,119.784 546.504,119.424 L546.504,87.384 C549.312,86.304 552.912,85.656 556.584,85.656 C564.144,85.656 568.392,89.112 568.392,97.248 L568.392,119.424 C568.392,119.784 568.608,120 569.04,120 L571.632,120 C571.992,120 572.208,119.784 572.208,119.424 L572.208,97.104 C572.208,86.808 566.16,82.128 556.584,82.128 C551.688,82.128 547.224,83.208 543.192,84.936 C542.832,85.08 542.688,85.296 542.688,85.656 L542.688,119.424 C542.688,119.784 542.904,120 543.336,120 L545.928,120 Z M607.008,85.008 L607.008,69.096 C607.008,68.736 607.224,68.52 607.584,68.52 L610.176,68.52 C610.608,68.52 610.824,68.736 610.824,69.096 L610.824,117.552 C610.824,117.912 610.68,118.128 610.32,118.2 C606.288,119.856 601.536,120.792 596.928,120.792 C587.496,120.792 581.304,116.04 581.304,105.312 L581.304,97.536 C581.304,87.384 587.352,82.128 596.64,82.128 C600.6,82.128 604.128,83.28 607.008,85.008 Z M585.192,97.536 L585.192,105.312 C585.192,113.952 589.512,117.336 597,117.336 C600.672,117.336 604.2,116.76 607.008,115.68 L607.008,88.68 C604.2,86.736 600.672,85.584 596.928,85.584 C589.44,85.584 585.192,89.112 585.192,97.536 Z M649.728,96.096 L649.728,102.864 C649.728,103.224 649.512,103.44 649.08,103.44 L624.24,103.44 L624.24,107.472 C624.24,113.808 629.136,117.336 635.112,117.336 C640.584,117.336 644.184,115.032 646.848,112.728 C647.208,112.512 647.496,112.512 647.712,112.872 L649.008,114.528 C649.296,114.816 649.296,115.104 648.936,115.392 C645.552,118.272 641.16,120.792 635.04,120.792 C627.408,120.792 620.352,116.112 620.352,107.472 L620.352,96.096 C620.352,86.88 626.832,82.128 635.112,82.128 C643.176,82.128 649.728,86.88 649.728,96.096 Z M645.984,100.2 L645.984,96.096 C645.984,89.184 641.448,85.656 635.112,85.656 C628.488,85.656 624.24,89.184 624.24,96.096 L624.24,100.2 L645.984,100.2 Z M661.92,120 C662.28,120 662.496,119.784 662.496,119.424 L662.496,87.312 C665.088,86.232 668.4,85.584 671.784,85.584 C674.016,85.584 676.392,85.8 678.624,86.16 C679.056,86.232 679.272,86.088 679.272,85.656 L679.272,83.424 C679.272,83.064 679.056,82.848 678.696,82.776 C676.176,82.416 673.728,82.128 671.352,82.128 C667.104,82.128 662.712,83.064 659.184,84.72 C658.824,84.864 658.68,85.08 658.68,85.44 L658.68,119.424 C658.68,119.784 658.896,120 659.328,120 L661.92,120 Z M712.632,96.096 L712.632,102.864 C712.632,103.224 712.416,103.44 711.984,103.44 L687.144,103.44 L687.144,107.472 C687.144,113.808 692.04,117.336 698.016,117.336 C703.488,117.336 707.088,115.032 709.752,112.728 C710.112,112.512 710.4,112.512 710.616,112.872 L711.912,114.528 C712.2,114.816 712.2,115.104 711.84,115.392 C708.456,118.272 704.064,120.792 697.944,120.792 C690.312,120.792 683.256,116.112 683.256,107.472 L683.256,96.096 C683.256,86.88 689.736,82.128 698.016,82.128 C706.08,82.128 712.632,86.88 712.632,96.096 Z M708.888,100.2 L708.888,96.096 C708.888,89.184 704.352,85.656 698.016,85.656 C691.392,85.656 687.144,89.184 687.144,96.096 L687.144,100.2 L708.888,100.2 Z M724.824,120 C725.184,120 725.4,119.784 725.4,119.424 L725.4,87.312 C727.992,86.232 731.304,85.584 734.688,85.584 C736.92,85.584 739.296,85.8 741.528,86.16 C741.96,86.232 742.176,86.088 742.176,85.656 L742.176,83.424 C742.176,83.064 741.96,82.848 741.6,82.776 C739.08,82.416 736.632,82.128 734.256,82.128 C730.008,82.128 725.616,83.064 722.088,84.72 C721.728,84.864 721.584,85.08 721.584,85.44 L721.584,119.424 C721.584,119.784 721.8,120 722.232,120 L724.824,120 Z"/>
    <path fill="url(#indigo_renderer_desktop-a)" d="M114.645556,38.3637546 C155.45,51.7542864 200,105.768097 200,105.768097 L161.967778,115.359174 C143.602222,162.417281 94.3172222,200 94.3172222,200 L84.4888889,161.838285 C32.2661111,139.882374 0,94.7212266 0,94.7212266 L37.6383333,85.0437983 C55.0177778,39.2792992 105.289444,0 105.289444,0 L114.645556,38.3637546 Z M101.520556,130.525442 C107.969444,119.001979 130.570556,98.2273086 130.570556,98.2273086 C115.536111,89.3370051 97.8655556,69.4751117 97.8655556,69.4751117 C90.3627778,83.1800506 69.0083333,101.677484 69.0083333,101.677484 C82.5638889,109.011251 101.520556,130.525442 101.520556,130.525442 Z" transform="rotate(180 100 100)"/>
  </g>
</svg>
