<?xml version="1.0" encoding="utf-8"?>
<!-- Generator: Adobe Illustrator 22.0.1, SVG Export Plug-In . SVG Version: 6.00 Build 0)  -->
<svg version="1.1" id="secondaryB" xmlns="http://www.w3.org/2000/svg" xmlns:xlink="http://www.w3.org/1999/xlink" x="0px" y="0px"
	 width="218" height="75" viewBox="0 0 218 75" style="enable-background:new 0 0 218 75;" xml:space="preserve">
<style type="text/css">
	.st0{fill:#FFFFFF;}
	.st1{fill:#ED1C24;}
</style>
<g id="_2d_negative">
	<path class="st0" d="M154.6,19.3c0-0.6-0.4-1-1-1c0,0,0,0-0.1,0c-0.6,0-1,0.3-1,0.8c0,0.2,0.1,0.4,0.3,0.6c0.3,0.2,0.7,0.3,1.1,0.6
		c0.9,0.4,1.2,0.6,1.4,0.9c0.2,0.3,0.4,0.7,0.3,1.1c0,1.1-0.9,1.9-2.2,1.9c-1.4,0-2.2-0.8-2.3-2.1h1c0.1,0.9,0.6,1.3,1.3,1.3
		c0.7,0,1.1-0.3,1.1-0.9c0-0.3-0.1-0.6-0.4-0.7c-0.3-0.2-0.7-0.3-1-0.6c-0.4-0.2-0.9-0.4-1.3-0.8c-0.3-0.3-0.4-0.7-0.4-1.1
		c0-1,0.9-1.8,2-1.8c0.7,0,1.3,0.2,1.8,0.8c0.2,0.3,0.3,0.7,0.3,1L154.6,19.3z"/>
	<path class="st0" d="M162.2,20.6c0,2-1.1,3.2-2.6,3.2s-2.8-1.3-2.8-3.3c0-1.9,1.1-3.2,2.8-3.2C161.1,17.4,162.2,18.7,162.2,20.6z
		 M157.8,20.6c0,1.5,0.7,2.4,1.7,2.4c1,0,1.7-0.9,1.7-2.4s-0.7-2.4-1.7-2.4C158.5,18.3,157.8,19.2,157.8,20.6L157.8,20.6z"/>
	<path class="st0" d="M164.4,17.5l2.8,4.7v-4.7h0.9v6.3h-1l-2.8-4.7v4.7h-0.9v-6.3C163.4,17.5,164.4,17.5,164.4,17.5z"/>
	<path class="st0" d="M170.4,17.5l1.4,2.6l1.4-2.6h1.1l-2,3.7v2.5h-1v-2.5l-2-3.7H170.4z"/>
	<path class="st0" d="M178.7,17.5c0.6,0,1.2,0,1.8,0.2c0.8,0.2,1.2,1,1.1,1.8c0,0.8-0.4,1.4-1.1,1.8c-0.6,0.1-1.1,0.2-1.7,0.2h-0.4
		v2.4h-1v-6.3h1.3V17.5z M178.8,20.5c0.3,0,0.8,0,1.1-0.1c0.4-0.1,0.7-0.6,0.7-1s-0.2-0.8-0.6-1c-0.4-0.1-0.8-0.2-1.2-0.1h-0.4v2.2
		H178.8z"/>
	<path class="st0" d="M182.7,23.8v-6.3h1v6.3C183.7,23.8,182.7,23.8,182.7,23.8z"/>
	<path class="st0" d="M188.9,19.4c-0.1-0.8-0.6-1.2-1.3-1.2c-1,0-1.7,0.9-1.7,2.4c0,1.4,0.7,2.4,1.7,2.4c0.8,0,1.2-0.6,1.3-1.5h0.9
		c-0.1,1.5-0.9,2.3-2.2,2.3c-1.7,0-2.8-1.2-2.8-3.2c-0.1-1,0.3-1.9,1-2.6c0.4-0.4,1.1-0.7,1.8-0.7c1.2,0,2,0.8,2.1,2L188.9,19.4z"/>
	<path class="st0" d="M194.5,17.5v0.9h-1.7v5.4h-1v-5.4h-1.7v-0.9H194.5z"/>
	<path class="st0" d="M196.5,17.5v3.6c0,0.8,0,1,0.2,1.2c0.2,0.4,0.8,0.7,1.2,0.7c0.6,0.1,1.1-0.3,1.3-0.9c0.1-0.3,0.1-0.7,0.1-1.1
		v-3.6h1V21c0,0.9,0,1.2-0.2,1.5c-0.3,0.8-1.1,1.2-2.2,1.2c-1.1,0-1.9-0.4-2.2-1.2c-0.1-0.3-0.2-0.7-0.2-1.5v-3.6h1V17.5z"/>
	<path class="st0" d="M203,17.5c1,0,1.4,0.1,1.9,0.2c0.6,0.3,1,0.9,1,1.5c0,0.8-0.4,1.4-1.2,1.8l1.5,2.6H205l-1.4-2.5h-1v2.5h-1
		v-6.3h1.3V17.5z M203.1,20.4c0.3,0,0.8,0,1.1-0.1c0.4-0.1,0.7-0.6,0.7-1c0-0.3-0.2-0.7-0.4-0.9c-0.2-0.1-0.4-0.1-1.3-0.1h-0.4v2.1
		H203.1z"/>
	<path class="st0" d="M210.6,20.1v0.9H208v2h2.9v0.9h-3.7v-6.3h3.7v0.9h-2.8v1.8L210.6,20.1z"/>
	<path class="st0" d="M215.1,19.3c0-0.6-0.4-1-1-1c0,0,0,0-0.1,0c-0.6,0-1,0.3-1,0.8c0,0.2,0.1,0.4,0.3,0.6c0.3,0.2,0.7,0.3,1.1,0.6
		c0.9,0.4,1.2,0.6,1.4,0.9c0.2,0.3,0.3,0.7,0.3,1.1c0,1.1-0.9,1.9-2.1,1.9c-1.4,0-2.2-0.8-2.3-2.1h1c0.1,0.9,0.6,1.3,1.3,1.3
		c0.7,0,1.1-0.3,1.1-0.9c0-0.3-0.1-0.6-0.4-0.7c-0.3-0.2-0.7-0.3-1-0.6c-0.4-0.2-0.9-0.4-1.3-0.8c-0.3-0.3-0.4-0.7-0.4-1.1
		c0-1,0.9-1.8,2-1.8c0.7,0,1.3,0.2,1.8,0.8c0.2,0.3,0.3,0.7,0.3,1L215.1,19.3z"/>
	<path class="st0" d="M25.3,16.9l-5.3,5.3l5.3,5.3l5.3-5.3L25.3,16.9z M23.2,14.8L18,9.5l-5.3,5.3l5.3,5.3L23.2,14.8z M62.4,53.9
		l-5.3,5.3l5.3,5.3l5.3-5.3L62.4,53.9z M60.2,51.8L55,46.5l-5.3,5.3L55,57L60.2,51.8z M65,34.3L63,27l-7.2,1.9l2,7.3L65,34.3z
		 M75.1,31.5l-1.9-7.3l-7.3,2l2,7.3L75.1,31.5z M5.2,42.5l2,7.3l7.3-2l-2-7.3L5.2,42.5z M15.3,39.8l2,7.3l7.3-2l-2-7.3L15.3,39.8z
		 M37.5,12.1l-7.3,2l2,7.3l7.3-2L37.5,12.1z M36.7,9.3l-2-7.3l-7.3,2l2,7.3L36.7,9.3z M43.7,64.6l2,7.3l7.3-2l-2-7.2L43.7,64.6z
		 M43,61.9l7.3-2l-2-7.3l-7.3,2L43,61.9z M43,12.1l-2,7.3l7.3,2l2-7.3L43,12.1z M51,11.2L53,4l-7.3-2l-2,7.3L51,11.2z M29.4,62.8
		l-2,7.3l7.3,2l2-7.3L29.4,62.8z M39.3,54.5l-7.3-2l-2,7.3l7.3,2L39.3,54.5z M22.6,36.1l2-7.3L17.3,27l-2,7.3L22.6,36.1z M7.2,24.2
		l-2,7.3l7.3,2l2-7.3L7.2,24.2z M73.2,49.7l2-7.3l-7.3-2l-2,7.3L73.2,49.7z M63.1,47l2-7.3l-7.3-1.9l-2,7.2L63.1,47z M49.7,22.1
		l5.3,5.3l5.3-5.3L55,16.9L49.7,22.1z M57.1,14.8l5.3,5.3l5.3-5.3l-5.2-5.3L57.1,14.8z M12.6,59.3l5.3,5.3l5.3-5.3L17.9,54
		L12.6,59.3z M20.1,51.8l5.3,5.3l5.3-5.3l-5.3-5.3L20.1,51.8z M42.3,29.6l5.3,5.3l5.3-5.3l-5.3-5.4L42.3,29.6z"/>
	<path class="st1" d="M86.6,29.5h2.3v2.2l0,0c1.1-1.7,2.9-2.6,4.8-2.5c1.9,0,3.5,0.8,4.1,2.5c1-1.7,2.8-2.5,4.7-2.5c3,0,5,1.2,5,4.3
		v11h-2.4v-9.8c0-1.9-0.4-3.3-2.9-3.3s-3.9,1.5-3.9,3.9v9.4h-2.4v-9.8c0-2-0.7-3.3-2.9-3.3c-3,0-4,2.6-4,3.9v9.4h-2.4L86.6,29.5z"/>
	<path class="st1" d="M122.4,44.4c-0.6,0.3-1.1,0.4-1.8,0.4c-1.3,0-2.1-0.7-2.1-2.3c-1.3,1.5-3.3,2.4-5.3,2.3c-2.8,0-5-1.2-5-4.2
		c0-3.4,2.5-4.1,5.1-4.6c2.8-0.6,5.1-0.3,5.1-2.2c0-2.1-1.8-2.5-3.3-2.5c-2.1,0-3.6,0.7-3.7,2.9h-2.4c0.1-3.7,3-5.1,6.4-5.1
		c2.6,0,5.6,0.7,5.6,4.1v7.7c0,1.2,0,1.7,0.8,1.7c0.2,0,0.6,0,0.8-0.1L122.4,44.4z M118.4,36.7c-1,0.7-2.9,0.8-4.4,1
		c-1.7,0.3-3,0.9-3,2.6c0,1.7,1.4,2.2,2.9,2.2c3.2,0,4.6-2,4.6-3.4L118.4,36.7z"/>
	<path class="st1" d="M135.6,43.2c0,4.8-2.2,7.4-6.9,7.4c-2.8,0-6.1-1.1-6.2-4.4h2.4c0.1,1.8,2.2,2.4,3.9,2.4c3.2,0,4.5-2.3,4.5-5.7
		v-1h-0.1c-0.8,1.9-2.8,2.8-4.6,2.8c-4.4,0-6.7-3.5-6.7-7.6c0-3.5,1.8-7.9,6.9-7.9c1.9,0,3.6,0.9,4.5,2.5l0,0v-2.2h2.3V43.2z
		 M133.1,36.7c0-2.6-1.2-5.4-4.3-5.4c-3.2,0-4.4,2.5-4.4,5.4c0,2.6,1,5.7,4.2,5.7C131.9,42.5,133.1,39.4,133.1,36.7L133.1,36.7z"/>
	<path class="st1" d="M150,39.8c-0.7,3.3-3.1,5.1-6.4,5.1c-4.7,0-7-3.3-7.2-7.9c0-4.5,3-7.8,7-7.8c5.3,0,6.9,5,6.7,8.6H139
		c-0.1,2.6,1.4,5,4.6,5c2,0,3.4-1,3.9-3L150,39.8z M147.6,35.6c0-2.3-2-4.2-4.3-4.2c-2.5,0-4.1,2-4.3,4.2H147.6z"/>
	<path class="st1" d="M165.4,44.5h-2.6l-3.1-11.9h-0.1l-3,11.9H154l-4.7-15h2.8l3.4,12.2h0.1l3-12.2h2.6l3.1,12.2h0.1l3.4-12.2h2.5
		L165.4,44.5z"/>
	<path class="st1" d="M176.5,29.2c4.7,0,7.3,3.4,7.3,7.8s-2.5,7.8-7.3,7.8s-7.3-3.4-7.3-7.8S171.8,29.2,176.5,29.2z M176.5,42.6
		c2.5,0,4.6-2,4.6-5.6c0-3.6-2.1-5.7-4.6-5.7c-2.5,0-4.6,2-4.6,5.7C171.9,40.8,174,42.6,176.5,42.6L176.5,42.6z"/>
	<path class="st1" d="M184.8,29.5h2.3v3.2h0.1c1.2-2.4,2.9-3.6,5.5-3.5v2.6c-4,0-5.4,2.3-5.4,6.1v6.6h-2.4L184.8,29.5z"/>
	<path class="st1" d="M193.6,23.8h2.4V36l6.8-6.5h3.3l-5.9,5.4l6.4,9.6h-3.1l-5.2-7.8l-2.3,2.1v5.7h-2.4V23.8z"/>
	<path class="st1" d="M207.7,39.8c0.1,2.2,2,2.9,4.1,2.9c1.5,0,3.6-0.3,3.6-2.2c0-1.9-2.4-2.2-4.8-2.8c-2.4-0.6-4.8-1.3-4.8-4.2
		c0-3,3-4.3,5.6-4.3c3.3,0,5.9,1,6.2,4.7h-2.4c-0.2-1.9-1.9-2.5-3.5-2.5c-1.4,0-3.2,0.4-3.2,1.9c0,1.8,2.6,2.1,4.8,2.6
		c2.4,0.6,4.8,1.3,4.8,4.3c0,3.6-3.3,4.7-6.4,4.7c-3.3,0-6.2-1.3-6.4-5.1L207.7,39.8z"/>
	<rect x="82.7" y="29.5" class="st1" width="2.4" height="15"/>
	<rect x="82.7" y="24.3" class="st1" width="2.4" height="2.4"/>
</g>
</svg>
