<?xml version="1.0" encoding="utf-8"?>
<!-- Generator: Adobe Illustrator 18.0.0, SVG Export Plug-In . SVG Version: 6.00 Build 0)  -->
<!DOCTYPE svg PUBLIC "-//W3C//DTD SVG 1.1 Tiny//EN" "http://www.w3.org/Graphics/SVG/1.1/DTD/svg11-tiny.dtd">
<svg version="1.1" baseProfile="tiny" id="SYCL" xmlns="http://www.w3.org/2000/svg" xmlns:xlink="http://www.w3.org/1999/xlink"
	 x="0px" y="0px" width="1100px" height="500px" viewBox="0 0 1100 500" xml:space="preserve">
<g>
	<path fill="#F35A1C" d="M680.1,362.2c-50.2,27.8-121.3,47.1-202.5,47.1c-146.2,0-264.8-58-264.8-153c0-101,118.5-156.7,264.8-156.7
		c81.5,0,152.9,15.7,203.1,43C625.8,97,527.5,56.1,415.1,56.1c-172.2,0-311.8,89.6-311.8,200.2c0,100.4,139.5,192.8,311.7,192.8
		C527,449.2,625.1,408.8,680.1,362.2z"/>
</g>
<g>
	<polygon fill="#F35A1C" points="973.4,328 966,328 966,347.1 959.6,347.1 959.6,328 952.3,328 952.3,322.5 973.4,322.5 973.4,328 	
		"/>
	<polygon fill="#F35A1C" points="976.2,322.5 985.7,322.5 989.9,338.9 990,338.9 994.2,322.5 1003.7,322.5 1003.7,347.1 
		997.7,347.1 997.7,328.4 997.6,328.4 992.4,347.1 987.5,347.1 982.3,328.4 982.3,328.4 982.3,347.1 976.2,347.1 976.2,322.5 	"/>
</g>
<g>
	<path fill="#F35A1C" d="M317.9,283.7c0,6.4,1.2,11.8,3.5,16.3c2.3,4.4,5.4,8,9.2,10.8c3.8,2.8,8.3,4.8,13.5,6.1
		c5.2,1.3,10.5,2,16,2c3.7,0,7.7-0.3,12-0.9c4.3-0.6,8.3-1.8,12-3.6c3.7-1.8,6.8-4.2,9.3-7.3c2.5-3.1,3.7-7.1,3.7-11.9
		c0-5.2-1.6-9.3-4.9-12.5c-3.3-3.2-7.6-5.9-12.9-8c-5.3-2.1-11.4-4-18.1-5.6c-6.8-1.6-13.6-3.4-20.5-5.3c-7.1-1.8-14-4-20.8-6.5
		c-6.8-2.6-12.8-5.9-18.1-10c-5.3-4.1-9.6-9.2-12.9-15.3c-3.3-6.1-4.9-13.5-4.9-22.3c0-9.8,2.1-18.3,6.3-25.4s9.6-13.2,16.4-18
		c6.8-4.8,14.4-8.4,22.9-10.7c8.5-2.3,17.1-3.5,25.6-3.5c9.9,0,19.5,1.1,28.6,3.3c9.1,2.2,17.3,5.8,24.4,10.8
		c7.1,5,12.7,11.3,16.9,19.1c4.2,7.7,6.3,17.1,6.3,28.1h-40.5c-0.4-5.7-1.6-10.4-3.6-14.1c-2-3.7-4.8-6.7-8.1-8.8
		c-3.4-2.1-7.2-3.6-11.6-4.5c-4.4-0.9-9.1-1.3-14.3-1.3c-3.4,0-6.8,0.4-10.1,1.1c-3.4,0.7-6.4,2-9.2,3.7c-2.8,1.8-5,4-6.8,6.7
		c-1.8,2.7-2.7,6-2.7,10.1c0,3.7,0.7,6.8,2.1,9.1c1.4,2.3,4.2,4.4,8.4,6.4c4.2,2,9.9,3.9,17.3,5.9c7.4,2,17,4.4,28.9,7.5
		c3.6,0.7,8.5,2,14.8,3.9c6.3,1.9,12.6,4.8,18.8,8.9c6.2,4.1,11.6,9.5,16.1,16.4c4.5,6.8,6.8,15.6,6.8,26.2c0,8.7-1.7,16.8-5.1,24.3
		c-3.4,7.5-8.4,13.9-15.1,19.3c-6.7,5.4-14.9,9.6-24.8,12.7c-9.9,3-21.3,4.5-34.2,4.5c-10.5,0-20.7-1.3-30.5-3.9
		c-9.9-2.6-18.6-6.6-26.1-12.1c-7.6-5.5-13.5-12.5-18-21.1c-4.4-8.5-6.6-18.7-6.4-30.4H317.9z"/>
	<path fill="#F35A1C" d="M498,272.8l-69.8-116.2h46.9l44.5,75.1l44.2-75.1h46.6l-70.6,117.3v73H498V272.8z"/>
	<path fill="#F35A1C" d="M739.7,220.6c-0.7-4.8-2.3-9.2-4.8-13.2c-2.5-4-5.6-7.5-9.3-10.5c-3.7-3-8-5.4-12.7-7.1
		c-4.7-1.7-9.6-2.5-14.8-2.5c-9.4,0-17.4,1.8-24,5.5c-6.6,3.6-11.9,8.5-16,14.7c-4.1,6.1-7.1,13.1-8.9,20.9
		c-1.9,7.8-2.8,15.9-2.8,24.2c0,8,0.9,15.8,2.8,23.3c1.9,7.5,4.8,14.3,8.9,20.4c4.1,6,9.4,10.9,16,14.5c6.6,3.6,14.6,5.5,24,5.5
		c12.8,0,22.8-3.9,30-11.7c7.2-7.8,11.6-18.1,13.2-30.9h40.5c-1.1,11.9-3.8,22.7-8.3,32.2c-4.4,9.6-10.3,17.8-17.6,24.5
		c-7.3,6.8-15.8,11.9-25.6,15.5c-9.8,3.6-20.5,5.3-32.2,5.3c-14.6,0-27.7-2.5-39.3-7.6c-11.6-5.1-21.5-12-29.4-20.9
		c-8-8.9-14.1-19.3-18.4-31.3c-4.3-12-6.4-24.9-6.4-38.8c0-14.2,2.1-27.4,6.4-39.6c4.3-12.2,10.4-22.8,18.4-31.8
		c8-9.1,17.8-16.2,29.4-21.3c11.6-5.2,24.7-7.7,39.3-7.7c10.5,0,20.4,1.5,29.7,4.5c9.3,3,17.7,7.4,25,13.2
		c7.4,5.8,13.5,12.9,18.3,21.5c4.8,8.5,7.8,18.3,9.1,29.3H739.7z"/>
	<path fill="#F35A1C" d="M796.7,156.6h41.8v155.1h92.7v35.2H796.7V156.6z"/>
</g>
</svg>
